<?xml version="1.0" standalone="no"?>
<!DOCTYPE svg PUBLIC "-//W3C//DTD SVG 20010904//EN"
 "http://www.w3.org/TR/2001/REC-SVG-20010904/DTD/svg10.dtd">
<svg version="1.0" xmlns="http://www.w3.org/2000/svg"
 width="500.000000pt" height="500.000000pt" viewBox="0 0 500.000000 500.000000"
 preserveAspectRatio="xMidYMid meet">

<g transform="translate(0.000000,500.000000) scale(0.100000,-0.100000)"
fill="#000000" stroke="none">
<path d="M3601 4303 c-12 -54 -27 -127 -35 -163 l-13 -65 -91 -31 c-50 -16
-95 -33 -98 -37 -14 -14 39 -7 107 14 39 12 71 20 73 18 1 -2 -3 -58 -10 -124
-16 -147 -18 -410 -4 -491 12 -66 50 -184 60 -184 4 0 -2 37 -12 83 -26 110
-35 381 -18 559 7 72 16 142 20 153 7 18 27 25 121 43 62 13 115 25 118 27 17
18 -25 16 -121 -3 -61 -13 -112 -21 -114 -20 -2 3 34 210 51 286 3 18 3 32 -3
32 -5 0 -19 -44 -31 -97z"/>
<path d="M1215 4304 c-99 -16 -234 -55 -310 -89 -84 -37 -63 -40 29 -4 43 17
80 28 82 26 3 -2 0 -24 -5 -49 -47 -207 -60 -788 -19 -788 8 0 9 41 5 135 -9
200 30 700 56 717 23 14 187 38 305 45 71 3 118 10 110 14 -19 13 -162 9 -253
-7z"/>
<path d="M2382 4225 c-21 -24 -54 -76 -72 -114 -33 -69 -50 -81 -50 -36 0 72
-39 75 -69 6 -11 -27 -21 -56 -20 -63 0 -7 8 5 17 27 38 90 52 87 52 -12 0
-50 -8 -104 -22 -152 -18 -61 -22 -101 -21 -201 1 -242 10 -278 79 -300 136
-45 329 61 410 227 32 64 49 163 40 224 -9 63 -54 131 -101 153 -38 18 -126
19 -167 2 -14 -6 -13 2 8 52 72 180 18 302 -84 187z m82 -51 c0 -96 -44 -189
-119 -260 -57 -52 -70 -84 -36 -84 12 0 40 23 67 54 75 87 180 120 250 77 63
-38 89 -148 60 -260 -42 -163 -183 -296 -325 -308 -64 -5 -98 9 -120 49 -33
59 36 162 140 209 27 12 47 24 45 27 -9 9 -107 -31 -147 -60 l-42 -30 7 33 c3
19 11 101 16 183 9 129 15 159 41 221 48 115 128 231 154 222 6 -2 10 -33 9
-73z"/>
<path d="M1602 3886 c-22 -24 -52 -62 -67 -85 -15 -22 -31 -41 -34 -41 -4 0
-15 22 -25 49 -9 27 -24 57 -32 67 -14 18 -14 18 -29 0 -8 -11 -15 -29 -15
-40 1 -17 4 -15 14 9 14 34 16 32 45 -57 l22 -66 -26 -51 c-30 -60 -26 -68 6
-11 13 22 26 40 30 40 4 0 15 -12 25 -27 9 -16 25 -33 33 -40 19 -15 58 -17
66 -3 3 6 -1 7 -10 4 -20 -8 -69 36 -85 77 -12 28 -9 33 51 112 34 45 67 88
72 95 22 28 -3 9 -41 -32z"/>
<path d="M1180 3867 c-34 -17 -70 -74 -70 -109 0 -20 10 -39 28 -56 15 -15 33
-39 41 -55 28 -53 96 -41 124 21 6 15 19 32 27 39 13 11 13 12 -2 13 -14 0
-18 9 -18 36 0 48 -33 100 -72 113 -17 6 -31 11 -32 11 -1 0 -12 -6 -26 -13z
m84 -29 c15 -23 20 -59 18 -110 -2 -26 -5 -28 -45 -28 -43 0 -43 1 -39 30 3
23 0 30 -12 30 -10 0 -16 -9 -16 -25 0 -30 -16 -33 -25 -5 -11 34 5 78 37 105
37 31 63 32 82 3z m6 -161 c0 -20 -22 -37 -47 -37 -35 0 -31 37 5 43 15 2 30
5 35 6 4 0 7 -5 7 -12z"/>
<path d="M1858 3860 c-27 -21 -72 -105 -83 -155 -8 -40 -57 -109 -79 -113 -18
-4 -19 2 -12 74 3 44 9 94 12 113 10 51 -18 35 -33 -20 -19 -72 -16 -163 5
-182 10 -10 21 -17 25 -17 12 0 49 46 59 74 l11 28 13 -31 c18 -43 57 -57 97
-33 33 18 122 140 112 151 -4 3 -11 -2 -17 -12 -25 -45 -97 -123 -121 -131
-38 -14 -52 4 -51 63 3 80 86 213 115 184 8 -8 7 -20 -4 -42 -9 -17 -11 -31
-6 -31 5 0 17 16 26 35 13 28 14 37 3 50 -17 20 -42 19 -72 -5z"/>
<path d="M2815 3854 c-68 -73 -61 -264 9 -264 27 0 37 11 56 60 14 38 48 80
63 80 5 0 7 -16 4 -36 -11 -68 24 -109 69 -79 13 8 36 36 51 62 l28 48 5 -35
c12 -70 34 -78 75 -27 14 17 23 25 20 16 -8 -23 12 -94 30 -109 30 -25 61 3
104 92 30 62 40 76 41 56 0 -58 59 -78 85 -28 26 50 17 69 -11 22 -14 -23 -29
-40 -33 -37 -5 2 -11 27 -13 55 -6 55 -21 81 -38 64 -6 -6 -25 -44 -43 -85
-41 -92 -58 -119 -76 -119 -11 0 -13 19 -9 100 5 111 -3 123 -33 46 -17 -47
-45 -86 -59 -86 -4 0 -10 20 -12 45 -11 89 -39 91 -83 5 -30 -58 -48 -75 -63
-57 -7 9 -8 26 -1 56 25 114 114 190 151 131 15 -23 28 -26 28 -7 0 24 -36 47
-73 47 -42 0 -83 -36 -111 -97 -13 -30 -23 -39 -35 -36 -19 5 -81 -57 -81 -81
0 -13 -31 -46 -43 -46 -3 0 -11 17 -17 39 -17 65 17 190 57 205 25 10 13 -43
-18 -79 -21 -24 -26 -35 -16 -35 25 0 77 67 77 99 0 48 -47 56 -85 15z"/>
<path d="M1675 3860 c-11 -17 5 -32 21 -19 8 6 14 15 14 20 0 12 -27 11 -35
-1z"/>
<path d="M3739 3804 c-8 -9 -25 -37 -39 -62 -26 -47 -54 -72 -67 -59 -4 5 -6
31 -5 58 1 28 -1 56 -5 62 -9 15 -21 -20 -22 -66 -2 -112 76 -102 140 18 13
25 27 45 32 45 9 0 25 -40 39 -101 10 -44 10 -47 -32 -108 -74 -108 -132 -289
-111 -344 14 -36 54 -54 84 -38 67 36 98 137 99 319 l0 134 37 35 36 36 -37
-27 c-43 -31 -48 -32 -48 -8 0 9 -11 41 -25 70 -26 55 -50 67 -76 36z m88
-301 c-7 -136 -24 -204 -66 -253 -25 -29 -32 -33 -48 -24 -27 17 -24 131 6
213 27 75 88 181 103 181 8 0 9 -35 5 -117z"/>
<path d="M2570 3215 c0 -3 7 -17 16 -30 9 -13 13 -28 10 -33 -3 -5 5 -14 18
-20 31 -14 109 -123 146 -205 16 -36 39 -101 50 -144 30 -109 42 -120 16 -13
-20 83 -68 199 -108 260 -36 57 -148 196 -148 185z"/>
<path d="M2185 2997 c-10 -7 -36 -22 -57 -34 -47 -28 -64 -79 -43 -127 l13
-31 -4 35 c-7 54 8 92 47 117 63 41 100 74 44 40z"/>
<path d="M2166 2940 c-14 -17 -28 -47 -32 -66 -18 -99 95 -176 186 -129 17 9
30 18 30 21 0 2 -9 0 -19 -6 -48 -25 -133 -3 -165 42 -25 36 -20 101 10 137
14 17 24 31 21 31 -3 0 -17 -14 -31 -30z"/>
<path d="M2510 2921 c0 -6 4 -13 10 -16 6 -3 7 1 4 9 -7 18 -14 21 -14 7z"/>
<path d="M2540 2870 c6 -11 13 -20 16 -20 2 0 0 9 -6 20 -6 11 -13 20 -16 20
-2 0 0 -9 6 -20z"/>
<path d="M2575 2816 c10 -14 19 -26 22 -26 7 0 -17 39 -28 46 -6 3 -3 -5 6
-20z"/>
<path d="M2587 2751 c-9 -16 -33 -48 -53 -72 -40 -48 -78 -118 -70 -127 3 -3
6 -1 6 5 0 5 21 36 46 69 25 32 55 76 66 97 14 28 24 37 35 33 13 -5 14 -4 3
9 -16 19 -13 20 -33 -14z"/>
<path d="M2101 2714 c0 -11 3 -14 6 -6 3 7 2 16 -1 19 -3 4 -6 -2 -5 -13z"/>
<path d="M2085 2642 c-3 -26 -2 -57 2 -70 7 -17 9 -4 10 47 1 39 0 71 -2 71
-2 0 -6 -21 -10 -48z"/>
<path d="M2135 2335 c7 -41 55 -159 62 -151 2 2 -3 21 -13 42 -9 22 -25 64
-35 94 -18 49 -19 51 -14 15z"/>
<path d="M2511 2355 c7 -11 34 -45 60 -75 88 -105 93 -121 96 -318 2 -187 7
-213 69 -346 44 -96 42 -73 -6 65 -39 111 -40 117 -40 251 0 214 -12 248 -134
379 -33 35 -53 55 -45 44z"/>
<path d="M2941 2365 c-1 -6 6 -42 14 -80 8 -39 15 -118 15 -177 0 -87 15 -219
24 -206 1 2 -1 82 -5 178 -5 135 -11 189 -27 235 -11 33 -20 55 -21 50z"/>
<path d="M2801 2251 c-1 -7 15 -61 35 -120 19 -58 39 -140 45 -181 5 -41 14
-88 19 -105 10 -30 10 -30 5 5 -4 19 -10 71 -15 115 -9 71 -88 326 -89 286z"/>
<path d="M2165 2043 c-3 -38 -19 -111 -35 -163 -30 -98 -60 -222 -60 -243 1
-17 56 153 80 245 20 77 38 228 27 228 -3 0 -8 -30 -12 -67z"/>
<path d="M2240 2023 c22 -42 40 -84 40 -93 0 -35 68 -275 76 -268 2 2 -6 33
-17 68 -11 35 -26 105 -34 155 -17 106 -33 157 -46 149 -5 -3 -18 11 -30 30
-38 64 -31 38 11 -41z"/>
<path d="M2903 1715 c0 -27 2 -38 4 -22 2 15 2 37 0 50 -2 12 -4 0 -4 -28z"/>
<path d="M2912 1635 c0 -16 2 -22 5 -12 2 9 2 23 0 30 -3 6 -5 -1 -5 -18z"/>
<path d="M2061 1604 c0 -11 3 -14 6 -6 3 7 2 16 -1 19 -3 4 -6 -2 -5 -13z"/>
<path d="M3003 1601 c9 -13 24 -49 33 -79 10 -31 19 -51 21 -45 6 16 -36 120
-54 135 -16 12 -16 11 0 -11z"/>
<path d="M2915 1590 c4 -6 11 -8 16 -5 14 9 11 15 -7 15 -8 0 -12 -5 -9 -10z"/>
<path d="M2390 1570 c6 -11 13 -20 16 -20 2 0 0 9 -6 20 -6 11 -13 20 -16 20
-2 0 0 -9 6 -20z"/>
<path d="M2347 1480 c-14 -33 -23 -60 -21 -60 8 0 57 111 52 116 -3 2 -16 -23
-31 -56z"/>
<path d="M2310 1216 l0 -54 -30 11 c-25 10 -34 8 -57 -9 -47 -35 -56 -120 -17
-158 18 -18 75 -21 91 -5 8 8 17 7 31 -2 27 -17 35 -8 22 25 -5 15 -10 77 -10
137 0 90 -3 109 -15 109 -11 0 -15 -13 -15 -54z m-16 -62 c12 -5 16 -21 16
-69 0 -61 -1 -63 -29 -73 -39 -14 -61 10 -61 64 0 63 30 95 74 78z"/>
<path d="M1637 1133 c-60 -134 -63 -143 -48 -143 5 0 15 16 21 35 l12 35 64 0
c63 0 64 0 78 -35 11 -25 21 -35 37 -35 13 0 19 5 16 13 -28 72 -112 257 -117
257 -4 0 -32 -57 -63 -127z m78 15 c11 -29 21 -56 23 -60 2 -5 -21 -8 -51 -8
l-56 0 26 60 c15 33 29 60 32 60 4 0 15 -24 26 -52z"/>
<path d="M1884 1165 c-49 -34 -56 -129 -11 -160 22 -15 63 -20 91 -9 27 10 18
21 -14 16 -59 -8 -92 50 -65 114 14 35 16 36 55 29 24 -4 40 -3 40 3 0 24 -65
29 -96 7z"/>
<path d="M2033 1170 c-35 -14 -27 -21 17 -14 35 6 40 4 51 -19 16 -34 5 -57
-26 -57 -14 0 -37 -11 -51 -25 -20 -20 -23 -28 -14 -45 12 -23 59 -27 78 -8
10 10 17 10 33 -1 14 -8 25 -9 31 -3 6 6 6 12 -1 16 -6 4 -11 36 -11 71 0 44
-5 68 -16 79 -17 17 -56 20 -91 6z m77 -118 c0 -23 -19 -42 -42 -42 -24 0 -34
26 -18 45 18 22 60 19 60 -3z"/>
<path d="M2441 1166 c-28 -16 -50 -52 -51 -84 0 -30 25 -78 45 -86 21 -8 69
-8 89 0 29 11 17 20 -22 16 -40 -4 -64 13 -76 56 -7 21 -5 22 58 22 62 0 66 1
66 23 0 28 -39 67 -66 67 -10 -1 -30 -7 -43 -14z m61 -23 c31 -28 22 -43 -27
-43 -46 0 -53 7 -35 41 13 23 37 24 62 2z"/>
<path d="M2598 1173 c-2 -4 -2 -47 0 -95 3 -79 5 -88 23 -88 17 0 19 8 19 74
0 77 5 86 51 86 17 0 19 -8 19 -80 0 -73 2 -80 20 -80 17 0 19 8 22 78 l3 77
33 3 c30 3 32 1 33 -30 2 -113 4 -123 22 -126 15 -3 17 5 17 70 0 106 -31 142
-88 102 -20 -14 -24 -14 -38 0 -19 19 -41 20 -74 1 -22 -12 -27 -11 -42 1 -9
9 -18 12 -20 7z"/>
<path d="M2907 1174 c-3 -3 13 -45 35 -94 40 -88 40 -90 23 -116 -9 -15 -30
-31 -46 -37 -30 -12 -39 -27 -15 -27 18 0 63 36 77 61 21 41 78 209 70 209 -4
0 -13 -19 -20 -42 -30 -100 -29 -99 -63 -25 -28 60 -48 84 -61 71z"/>
<path d="M1040 820 c0 -5 11 -10 25 -10 24 0 25 -2 25 -75 0 -99 18 -97 22 3
l3 77 29 -3 c18 -3 26 0 22 7 -9 14 -126 15 -126 1z"/>
<path d="M1190 745 c0 -50 4 -85 10 -85 6 0 10 20 10 45 0 33 5 47 16 52 21 8
34 -14 34 -59 0 -21 5 -38 11 -38 6 0 9 21 7 53 -3 51 -3 52 -35 52 -31 0 -33
2 -33 32 0 18 -4 33 -10 33 -6 0 -10 -35 -10 -85z"/>
<path d="M1500 745 c0 -50 4 -85 10 -85 6 0 10 18 10 40 l0 40 40 0 40 0 0
-40 c0 -22 5 -40 10 -40 6 0 10 35 10 85 0 50 -4 85 -10 85 -5 0 -10 -18 -10
-40 l0 -40 -40 0 -40 0 0 40 c0 22 -4 40 -10 40 -6 0 -10 -35 -10 -85z"/>
<path d="M2199 801 c-57 -57 -29 -141 46 -141 50 0 85 36 85 89 0 31 -6 44
-26 60 -37 29 -70 26 -105 -8z m82 0 c18 -15 23 -28 23 -60 -1 -22 -7 -48 -14
-56 -18 -22 -67 -19 -80 4 -17 33 -12 89 10 111 25 25 32 25 61 1z"/>
<path d="M2382 801 c-12 -20 -16 -44 -14 -85 5 -69 22 -75 22 -7 0 39 4 51 18
54 16 4 16 5 0 6 -32 2 -18 45 17 54 18 4 18 5 -3 6 -15 1 -28 -9 -40 -28z"/>
<path d="M2518 824 c-5 -4 -8 -43 -8 -86 l0 -78 38 0 c66 0 110 53 65 79 -15
8 -16 12 -5 22 14 15 16 45 4 53 -17 10 -87 18 -94 10z m76 -31 c8 -20 -11
-43 -35 -43 -14 0 -19 7 -19 29 0 41 40 51 54 14z m-10 -59 c9 -3 16 -16 16
-29 0 -22 -17 -35 -46 -35 -9 0 -14 11 -14 35 0 36 10 42 44 29z"/>
<path d="M2860 800 c0 -27 -3 -30 -30 -30 -38 0 -59 -36 -44 -78 8 -24 15 -27
57 -28 37 -1 47 2 42 13 -3 8 -5 46 -5 84 0 39 -4 69 -10 69 -5 0 -10 -13 -10
-30z m-2 -82 c-4 -51 -31 -65 -49 -25 -14 31 3 67 32 67 18 0 20 -5 17 -42z"/>
<path d="M3340 746 c0 -62 3 -86 13 -86 16 0 14 163 -2 168 -7 2 -11 -24 -11
-82z"/>
<path d="M3610 810 c0 -5 5 -10 10 -10 6 0 10 5 10 10 0 6 -4 10 -10 10 -5 0
-10 -4 -10 -10z"/>
<path d="M3536 783 c-8 -8 -8 -87 0 -107 3 -9 16 -16 28 -16 19 1 19 2 4 11
-24 13 -25 86 -3 91 13 2 12 5 -4 15 -10 6 -22 9 -25 6z"/>
<path d="M1325 756 c-29 -29 -32 -57 -9 -80 16 -17 74 -22 74 -7 0 5 -8 7 -19
4 -18 -4 -51 20 -51 38 0 5 18 9 41 9 32 0 40 3 37 16 -2 9 -13 23 -25 31 -20
14 -24 13 -48 -11z m53 -13 c2 -8 -6 -13 -22 -13 -25 0 -33 10 -19 24 10 10
36 3 41 -11z"/>
<path d="M1674 755 c-13 -13 -24 -33 -24 -44 0 -46 62 -68 93 -33 50 55 -17
129 -69 77z m62 -17 c3 -11 3 -31 0 -44 -5 -19 -12 -25 -29 -22 -17 2 -23 11
-25 36 -6 56 38 80 54 30z"/>
<path d="M1916 768 c-23 -13 -20 -35 9 -54 33 -21 32 -42 -2 -47 -21 -4 -19
-4 7 -3 45 1 54 35 16 60 -33 21 -33 34 2 38 24 3 25 4 6 9 -12 4 -29 2 -38
-3z"/>
<path d="M2019 767 c-27 -14 -38 -69 -18 -93 13 -16 65 -19 73 -5 4 5 -3 7
-14 4 -23 -6 -50 12 -50 33 0 9 12 14 35 14 28 0 35 4 35 20 0 28 -31 42 -61
27z m39 -24 c2 -8 -6 -13 -22 -13 -25 0 -33 10 -19 24 10 10 36 3 41 -11z"/>
<path d="M2688 766 c-27 -13 -37 -68 -17 -92 21 -25 72 -14 88 20 25 53 -18
98 -71 72z m50 -55 c-2 -26 -8 -37 -22 -39 -35 -7 -50 53 -20 83 24 24 46 1
42 -44z"/>
<path d="M3036 768 c-23 -13 -20 -35 9 -54 33 -21 32 -42 -2 -47 -21 -4 -19
-4 7 -3 45 1 54 35 16 60 -33 21 -33 34 2 38 24 3 25 4 6 9 -12 4 -29 2 -38
-3z"/>
<path d="M3150 772 c-62 -19 -47 -114 18 -111 24 2 24 2 4 6 -28 6 -44 35 -36
67 4 19 14 26 37 28 25 2 28 4 12 9 -11 3 -27 4 -35 1z"/>
<path d="M3457 773 c-4 -3 -19 -6 -34 -5 l-28 1 3 -80 c3 -56 7 -79 16 -79 8
0 13 10 12 23 -1 16 5 23 24 25 14 2 31 9 38 14 17 15 15 74 -4 92 -18 18 -18
18 -27 9z m19 -37 c8 -35 -4 -66 -26 -66 -24 0 -36 40 -20 69 15 28 38 27 46
-3z"/>
<path d="M3710 770 c-8 -5 -22 -7 -30 -5 -12 4 -14 -5 -12 -50 5 -66 22 -74
22 -10 0 33 5 47 16 52 21 8 34 -14 34 -59 0 -21 5 -38 10 -38 17 0 12 87 -6
104 -18 19 -15 18 -34 6z"/>
<path d="M3839 767 c6 -6 11 -22 11 -35 0 -17 -5 -23 -17 -20 -12 2 -18 13
-18 31 1 15 -2 27 -6 27 -12 0 -18 -32 -15 -75 2 -22 -1 -46 -7 -53 -26 -33
49 -48 84 -16 26 23 20 38 -20 44 -37 6 -42 23 -9 30 15 4 24 16 29 37 5 27 3
32 -18 36 -18 3 -21 1 -14 -6z m25 -113 c13 -5 14 -9 5 -20 -13 -16 -55 -19
-64 -4 -15 24 21 39 59 24z"/>
<path d="M1780 728 c0 -58 9 -67 55 -66 l40 2 -3 53 c-5 65 -22 71 -22 8 0
-33 -5 -47 -16 -52 -21 -8 -34 14 -34 60 0 20 -4 37 -10 37 -5 0 -10 -19 -10
-42z"/>
<path d="M2912 762 c44 -100 45 -125 6 -142 -18 -8 -18 -9 -4 -7 22 2 51 40
61 77 4 16 3 20 -3 12 -6 -9 -13 -1 -25 28 -8 22 -21 40 -27 40 -6 0 -10 -3
-8 -8z"/>
<path d="M2991 763 c-1 -6 -4 -20 -7 -30 -5 -17 -5 -17 6 0 6 10 9 23 6 30 -3
9 -5 9 -5 0z"/>
<path d="M3222 718 l3 -53 43 -1 c39 -1 43 1 38 20 -3 12 -6 36 -6 54 0 50
-19 38 -22 -15 -2 -35 -7 -48 -18 -48 -11 0 -16 13 -18 48 -2 26 -8 47 -13 47
-6 0 -9 -22 -7 -52z"/>
<path d="M3610 715 c0 -30 5 -55 10 -55 6 0 10 25 10 55 0 30 -4 55 -10 55 -5
0 -10 -25 -10 -55z"/>
</g>
</svg>
